<svg width="60" height="48" viewBox="0 0 60 48" fill="none" xmlns="http://www.w3.org/2000/svg">
<path d="M25.7326 16.6175H25.7452C25.9586 16.6191 26.164 16.5359 26.316 16.3862C26.4681 16.2364 26.5544 16.0324 26.556 15.819C26.5577 15.6056 26.4745 15.4003 26.3247 15.2482C26.175 15.0961 25.971 15.0098 25.7575 15.0082L13.2309 14.8155C13.0186 14.8137 12.8142 14.8959 12.6622 15.0442C12.5102 15.1924 12.423 15.3948 12.4195 15.607C12.416 15.8193 12.4966 16.0244 12.6437 16.1775C12.7908 16.3307 12.9924 16.4195 13.2047 16.4246L25.7326 16.6175Z" fill="#0C68F4"/>
<path d="M25.7454 22.8758C25.9588 22.8775 26.1642 22.7943 26.3162 22.6445C26.4683 22.4948 26.5546 22.2908 26.5562 22.0773C26.5579 21.8639 26.4747 21.6586 26.3249 21.5066C26.1752 21.3545 25.9712 21.2682 25.7577 21.2665L13.2311 21.0739C13.0177 21.0704 12.8116 21.1519 12.6583 21.3003C12.5049 21.4487 12.4168 21.652 12.4133 21.8654C12.4099 22.0788 12.4913 22.2849 12.6397 22.4383C12.7882 22.5916 12.9915 22.6797 13.2049 22.6832L25.7315 22.8758H25.7454Z" fill="#0C68F4"/>
<path d="M51.334 15.0082L38.9817 14.8156H38.9688C38.7577 14.8174 38.5558 14.9021 38.4066 15.0515C38.2573 15.2009 38.1728 15.4029 38.1712 15.614C38.1696 15.8252 38.251 16.0285 38.3979 16.1801C38.5448 16.3317 38.7454 16.4195 38.9565 16.4246L51.3089 16.6175H51.3217C51.5351 16.6192 51.7404 16.5359 51.8925 16.3862C52.0446 16.2365 52.1309 16.0324 52.1325 15.819C52.1342 15.6056 52.051 15.4003 51.9012 15.2482C51.7515 15.0962 51.5474 15.0098 51.334 15.0082Z" fill="#0C68F4"/>
<path d="M51.334 21.2677L38.9817 21.075H38.9688C38.7577 21.0769 38.5558 21.1616 38.4066 21.311C38.2573 21.4604 38.1728 21.6624 38.1712 21.8735C38.1696 22.0846 38.251 22.2879 38.3979 22.4396C38.5448 22.5912 38.7454 22.679 38.9565 22.6841L51.3089 22.877H51.3217C51.5351 22.8786 51.7404 22.7954 51.8925 22.6457C52.0446 22.4959 52.1309 22.2919 52.1325 22.0785C52.1342 21.8651 52.051 21.6598 51.9012 21.5077C51.7515 21.3557 51.5474 21.2693 51.334 21.2677Z" fill="#0C68F4"/>
<path d="M57.199 6.80621C53.272 5.90104 49.2606 5.41197 45.2311 5.34708C40.8779 5.33952 36.541 5.87968 32.3226 6.95482C28.1042 5.87966 23.7673 5.33951 19.4141 5.34708C15.3846 5.41197 11.3732 5.90104 7.4462 6.80621C7.07559 6.88998 6.74465 7.09769 6.50808 7.39502C6.27151 7.69236 6.14347 8.06151 6.14513 8.44146V22.5764C6.14513 22.7898 6.2299 22.9945 6.3808 23.1454C6.53171 23.2963 6.73637 23.381 6.94978 23.381C7.16319 23.381 7.36786 23.2963 7.51876 23.1454C7.66966 22.9945 7.75443 22.7898 7.75443 22.5764V8.44146C7.75418 8.42603 7.75926 8.41098 7.76881 8.39886C7.77836 8.38673 7.79179 8.37827 7.80686 8.37489C11.6154 7.49616 15.5059 7.02071 19.4141 6.95639C23.4774 6.94964 27.5267 7.43447 31.4736 8.40031V39.2831C29.8239 38.8785 28.1542 38.5599 26.4714 38.3287C26.3668 38.3145 26.2603 38.321 26.1581 38.3479C26.056 38.3748 25.9601 38.4215 25.876 38.4855C25.792 38.5494 25.7213 38.6293 25.6681 38.7205C25.6148 38.8118 25.5801 38.9126 25.5659 39.0173C25.5516 39.122 25.5581 39.2284 25.585 39.3306C25.6119 39.4327 25.6586 39.5286 25.7226 39.6127C25.7865 39.6968 25.8664 39.7674 25.9576 39.8206C26.0489 39.8739 26.1497 39.9086 26.2544 39.9228C28.1663 40.1867 30.0608 40.5642 31.9279 41.0533C32.0082 41.0739 32.0908 41.0844 32.1737 41.0845C32.2261 41.0845 32.2707 41.0415 32.3229 41.0321C32.3753 41.0405 32.4183 41.0845 32.4715 41.0845C32.5548 41.0845 32.6377 41.074 32.7184 41.0533C40.4738 38.9787 48.637 38.9697 56.397 41.0271C56.6452 41.0922 56.9051 41.0995 57.1566 41.0484C57.4081 40.9973 57.6445 40.8892 57.8476 40.7324C58.0508 40.5756 58.2152 40.3742 58.3284 40.1439C58.4415 39.9135 58.5002 39.6603 58.5001 39.4036V8.44146C58.5017 8.06151 58.3737 7.69236 58.1371 7.39502C57.9006 7.09769 57.5696 6.88998 57.199 6.80621ZM56.8908 39.4039C56.8914 39.4146 56.8893 39.4254 56.8847 39.4351C56.8801 39.4448 56.8732 39.4533 56.8646 39.4597C56.8569 39.4664 56.8477 39.4709 56.8378 39.4729C56.8278 39.4749 56.8175 39.4742 56.8079 39.471C53.1016 38.4964 49.2926 37.9654 45.461 37.8892C45.2498 37.8869 45.0405 37.8858 44.8333 37.8858C40.9037 37.8716 36.9873 38.3408 33.1723 39.2828V8.40005C37.1193 7.43432 41.1686 6.94958 45.2319 6.95639C49.1405 7.02064 53.0314 7.49609 56.8404 8.37489C56.8555 8.37827 56.8689 8.38673 56.8785 8.39886C56.888 8.41098 56.8931 8.42603 56.8929 8.44146L56.8908 39.4039Z" fill="#52565C"/>
<path d="M14.2343 31.6716L13.8896 26.4314C13.8838 26.3452 13.8556 26.2619 13.8078 26.1899C13.76 26.1178 13.6942 26.0595 13.617 26.0206C13.5398 25.9816 13.4538 25.9635 13.3675 25.9679C13.2811 25.9723 13.1974 25.9991 13.1246 26.0456L8.78336 28.8318C8.71025 28.8789 8.65076 28.9444 8.61081 29.0216C8.57086 29.0989 8.55185 29.1853 8.55567 29.2722C8.55949 29.3591 8.586 29.4435 8.63257 29.5169C8.67914 29.5904 8.74414 29.6504 8.8211 29.6909L9.8433 30.2262C9.96005 30.2875 10.0477 30.3927 10.087 30.5185C10.1263 30.6444 10.1141 30.7808 10.053 30.8977L8.69582 33.4891C8.63481 33.6059 8.62263 33.7422 8.66193 33.868C8.70124 33.9938 8.78883 34.099 8.9055 34.1603L9.8323 34.6455C9.94915 34.7065 10.0854 34.7187 10.2113 34.6793C10.3371 34.64 10.4422 34.5525 10.5035 34.4358L11.8604 31.8444C11.9218 31.7276 12.0269 31.64 12.1528 31.6007C12.2787 31.5614 12.4151 31.5736 12.5319 31.6347L13.5067 32.145C13.585 32.1859 13.6728 32.2053 13.7611 32.2011C13.8493 32.1969 13.9348 32.1692 14.0089 32.1211C14.083 32.0729 14.1429 32.0059 14.1825 31.9269C14.2221 31.8479 14.24 31.7598 14.2343 31.6716Z" fill="#0C68F4"/>
<path d="M18.3068 35.0115C15.9217 33.5699 13.2857 34.384 10.2197 37.3872C9.61055 37.9837 6.47161 40.7945 3.71954 38.7763C3.14384 38.3523 2.73267 37.7421 2.55589 37.0493C2.37911 36.3565 2.44761 35.6238 2.74976 34.9758C3.1875 34.096 3.93857 33.4118 4.85527 33.0577C5.77198 32.7036 6.78798 32.7053 7.70349 33.0625C7.7242 33.0652 7.74524 33.0616 7.76392 33.0523C7.7826 33.043 7.79807 33.0282 7.80833 33.0101C7.80833 32.9839 7.78212 32.9314 7.75591 32.9314C6.78208 32.555 5.70914 32.5212 4.71355 32.8356C3.71797 33.15 2.85902 33.7939 2.27797 34.6613C1.95191 35.0891 1.72035 35.5812 1.59862 36.1051C1.47688 36.629 1.46774 37.1728 1.5718 37.7005C1.67585 38.2282 1.89073 38.7278 2.20223 39.1663C2.51374 39.6048 2.91476 39.9721 3.3788 40.2441C6.82597 42.2285 10.2792 39.0122 10.8487 38.5111C12.7377 36.814 15.2138 34.4611 17.9661 36.4792C18.5417 36.9034 18.9527 37.5136 19.1295 38.2064C19.3062 38.8991 19.2378 39.6317 18.9359 40.2797C18.4981 41.1595 17.747 41.8437 16.8303 42.1978C15.9137 42.5518 14.8977 42.5502 13.9822 42.1931C13.9614 42.1904 13.9404 42.1939 13.9217 42.2033C13.903 42.2126 13.8876 42.2273 13.8773 42.2455C13.8773 42.2717 13.9035 42.3241 13.9297 42.3241C14.9016 42.7171 15.98 42.7593 16.9796 42.4437C17.9792 42.128 18.8377 41.4741 19.4077 40.5943C19.7202 40.1616 19.9404 39.6693 20.0545 39.1479C20.1686 38.6265 20.1742 38.0872 20.0709 37.5636C19.9677 37.0399 19.7578 36.5431 19.4543 36.1041C19.1508 35.665 18.7602 35.2931 18.3068 35.0115Z" fill="#0C68F4"/>
</svg>
