<svg width="60" height="48" viewBox="0 0 60 48" fill="none" xmlns="http://www.w3.org/2000/svg">
<path d="M17.8497 36.7063C17.0397 36.654 11.4999 36.8369 7.52803 32.4731C3.50389 28.057 3.3471 23.1705 3.50389 21.2629H4.67977C4.75817 21.2629 4.83656 21.1846 4.83656 21.1062C4.83656 21.08 4.83656 21.0278 4.81043 21.0016L2.48478 17.8921C2.43252 17.8137 2.328 17.8137 2.27574 17.8659C2.24961 17.8659 2.24961 17.8921 2.24961 17.8921L0.028487 21.0278C-0.0237746 21.1062 0.00235622 21.1846 0.0546179 21.2368C0.0807487 21.2629 0.106879 21.2629 0.159141 21.2629H1.43955C1.59634 22.3343 1.90991 28.658 7.29285 33.466C11.4477 37.1766 17.118 36.8892 17.8497 36.8892C17.902 36.8892 17.9281 36.8369 17.9281 36.7847C17.9281 36.7324 17.902 36.7063 17.8497 36.7063Z" fill="#0C68F4"/>
<path d="M5.54269 24.3464H7.24119V26.0449C7.24119 26.3062 7.45024 26.5414 7.73768 26.5414C7.99899 26.5414 8.23416 26.3323 8.23416 26.0449V24.3464H9.93267C10.194 24.3464 10.4292 24.1112 10.403 23.8499C10.403 23.5886 10.194 23.3795 9.93267 23.3795H8.20803V21.681C8.20803 21.4197 7.99899 21.1845 7.71155 21.1845C7.45024 21.1845 7.21506 21.3936 7.21506 21.681V23.3795H5.54269C5.28138 23.3795 5.0462 23.6147 5.07233 23.876C5.0462 24.1373 5.28138 24.3464 5.54269 24.3464Z" fill="#0C68F4"/>
<path d="M5.75174 35.1907H4.60199V34.0148C4.60199 33.7796 4.39294 33.5967 4.15776 33.5967C3.92259 33.5967 3.73967 33.7796 3.73967 34.0148V35.1907H2.56378C2.32861 35.1907 2.14569 35.3997 2.14569 35.6349C2.14569 35.8701 2.32861 36.053 2.56378 36.053H3.73967V37.2289C3.73967 37.4641 3.92259 37.6731 4.15776 37.6731C4.39294 37.6731 4.60199 37.4902 4.60199 37.255V37.2289V36.053H5.77788C6.01305 36.053 6.19597 35.844 6.19597 35.6088C6.16984 35.3736 5.98692 35.1907 5.75174 35.1907Z" fill="#0C68F4"/>
<path d="M25.7159 15.0175C25.4546 15.0175 25.2194 14.8085 25.2194 14.521V11.6466C25.2194 11.3853 25.4285 11.1501 25.6898 11.1501C25.9511 11.1501 26.1863 11.3592 26.1863 11.6205V11.6466V14.521C26.2124 14.8085 26.0033 15.0175 25.7159 15.0175Z" fill="#0C68F4"/>
<path d="M25.9506 10.8105L18.7907 8.32809C18.6078 8.27583 18.4249 8.27583 18.2681 8.32809L10.8731 10.8105C10.455 10.9673 10.2198 11.4115 10.3505 11.8558C10.4289 12.0909 10.6379 12.3 10.8731 12.3784L13.643 13.2146V15.0698C13.643 17.7613 15.8118 19.9302 18.5294 19.9302C21.247 19.9302 23.4159 17.7613 23.4159 15.0698V13.1623L25.9767 12.3522C26.3948 12.2216 26.63 11.7512 26.4993 11.3331C26.3948 11.098 26.2119 10.8889 25.9506 10.8105ZM22.0832 15.0437C22.1093 17.0035 20.5415 18.6236 18.5556 18.6498C16.5957 18.6759 14.9756 17.108 14.9495 15.1482C14.9495 15.1221 14.9495 15.096 14.9495 15.0698V13.6065L18.2942 14.6517C18.451 14.704 18.6339 14.704 18.7907 14.6517L22.0832 13.6065V15.0437ZM18.5294 13.3452L12.7545 11.5683L18.5294 9.6085L24.1214 11.5683L18.5294 13.3452Z" fill="#52565C"/>
<path d="M58.9796 15.0175C58.7183 15.0175 58.4831 14.8085 58.4831 14.521V11.6466C58.4831 11.3853 58.6921 11.1501 58.9534 11.1501C59.2148 11.1501 59.4499 11.3592 59.4499 11.6205V11.6466V14.521C59.4761 14.8085 59.267 15.0175 58.9796 15.0175Z" fill="#0C68F4"/>
<path d="M59.2415 10.8105L52.0817 8.32809C51.8988 8.27583 51.7159 8.27583 51.5591 8.32809L44.164 10.8105C43.746 10.9673 43.5108 11.4115 43.6414 11.8557C43.7198 12.0909 43.9289 12.3 44.164 12.3784L46.8817 13.2146V15.0698C46.8817 17.7613 49.0505 19.9563 51.742 19.9563C54.4335 19.9563 56.6285 17.7874 56.6285 15.096L56.6023 13.2146L59.1893 12.3784C59.6335 12.2216 59.8687 11.7512 59.738 11.3331C59.6596 11.098 59.4767 10.8889 59.2415 10.8105ZM55.348 15.0437C55.348 17.0035 53.7541 18.5975 51.7942 18.5975C49.8344 18.5975 48.2405 17.0035 48.2405 15.0437V13.6065L51.5591 14.6256C51.7159 14.6779 51.8988 14.6779 52.0556 14.6256L55.348 13.5804V15.0437ZM51.7942 13.3452L46.0193 11.5683L51.7942 9.6085L57.3862 11.5683L51.7942 13.3452Z" fill="#52565C"/>
<path d="M43.2765 23.1442C43.0151 23.1442 42.78 22.9352 42.78 22.6478V18.3884C42.78 18.1271 42.989 17.892 43.2503 17.892C43.5116 17.892 43.7468 18.101 43.7468 18.3623V18.3884V22.6739C43.7729 22.9352 43.5639 23.1442 43.2765 23.1442Z" fill="#0C68F4"/>
<path d="M43.5366 17.5002L35.018 14.5213C34.8351 14.469 34.6521 14.469 34.4692 14.5213L25.6631 17.5002C25.2189 17.657 24.9837 18.1273 25.1405 18.5716C25.2189 18.8329 25.428 19.0419 25.6893 19.1203L29.034 20.1655V22.4912C29.034 25.6269 31.5687 28.1616 34.7044 28.1616C37.8401 28.1616 40.3748 25.6269 40.3748 22.4912V20.1394L43.5105 19.1464C43.9547 19.0158 44.1899 18.5193 44.0592 18.0751C43.9809 17.7876 43.7718 17.5786 43.5366 17.5002ZM39.0683 20.5314V22.4651C39.0683 24.8691 37.1084 26.8289 34.7044 26.8289C32.3004 26.8289 30.3406 24.8691 30.3406 22.4651V20.5575L34.4954 21.8379C34.6521 21.8902 34.8351 21.8902 34.9918 21.8379L39.0683 20.5314ZM34.7044 20.5314L27.4139 18.2841L34.7044 15.8278L41.7597 18.2841L34.7044 20.5314Z" fill="#52565C"/>
<path d="M25.4532 30.5133H11.6561C11.029 30.5133 10.5064 29.9907 10.5064 29.3636V29.2329C10.4802 24.7907 14.0602 21.1585 18.5024 21.1324C22.9446 21.1062 26.5768 24.6861 26.603 29.1284C26.603 29.1545 26.603 29.1806 26.603 29.2329V29.3636C26.603 30.0168 26.0803 30.5133 25.4532 30.5133ZM11.8129 29.2068H25.2703C25.2442 25.4962 22.213 22.4912 18.5024 22.5173C14.818 22.5434 11.839 25.5223 11.8129 29.2068Z" fill="#52565C"/>
<path d="M58.8501 30.5133H45.0531C44.4259 30.5133 43.9033 29.9907 43.9033 29.3636V29.2329C43.8772 24.7907 47.4571 21.1585 51.8993 21.1324C56.3416 21.1062 59.9738 24.6861 59.9999 29.1284C59.9999 29.1545 59.9999 29.1806 59.9999 29.2329V29.3636C59.9999 30.0168 59.4773 30.5133 58.8501 30.5133ZM45.236 29.2068H58.6934C58.6934 25.4962 55.6883 22.465 51.9516 22.465C48.2149 22.465 45.236 25.4962 45.236 29.2068Z" fill="#52565C"/>
<path d="M42.4133 39.7111H26.7087C26.0815 39.7111 25.5589 39.1885 25.5589 38.5614V38.3523C25.5589 33.3875 29.583 29.3633 34.5479 29.3633C39.5128 29.3633 43.5369 33.3875 43.5369 38.3523V38.5614C43.563 39.2146 43.0665 39.7111 42.4133 39.7111ZM26.8916 38.4046H42.2565V38.3523C42.2826 34.1191 38.8595 30.6437 34.6263 30.6176C30.3931 30.5915 26.9177 34.0146 26.8916 38.2478C26.8916 38.2739 26.8916 38.3001 26.8916 38.3262V38.4046Z" fill="#52565C"/>
<path d="M26.3161 14.2597C26.6558 14.5994 26.6558 15.1743 26.3161 15.5401C25.9764 15.8798 25.4015 15.8798 25.0357 15.5401C24.696 15.2004 24.696 14.6255 25.0357 14.2597C25.4015 13.8939 25.9764 13.8939 26.3161 14.2597Z" fill="#0C68F4"/>
<path d="M59.6855 14.2596C60.0252 14.5993 60.0252 15.1742 59.6855 15.54C59.3458 15.8797 58.7709 15.8797 58.4051 15.54C58.0654 15.2003 58.0654 14.6255 58.4051 14.2596C58.7709 13.8938 59.3197 13.8938 59.6855 14.2596Z" fill="#0C68F4"/>
<path d="M43.9302 22.7523C44.2699 23.092 44.2699 23.6669 43.9302 24.0327C43.5905 24.3724 43.0157 24.3724 42.6498 24.0327C42.3101 23.693 42.3101 23.1181 42.6498 22.7523C42.9895 22.4126 43.5644 22.4126 43.9302 22.7523Z" fill="#0C68F4"/>
</svg>
