<svg width="60" height="48" viewBox="0 0 60 48" fill="none" xmlns="http://www.w3.org/2000/svg">
<path d="M1.0484 32.8959C1.0265 31.1134 1.57383 29.3704 2.6108 27.9204C3.26794 27.0087 4.09923 26.2363 5.05663 25.6477C6.01404 25.0591 7.07858 24.6661 8.18876 24.4913C9.29895 24.3165 10.4328 24.3634 11.5247 24.6294C12.6166 24.8953 13.6451 25.375 14.5505 26.0407C15.4725 26.722 16.2503 27.5794 16.8389 28.5632C17.4274 29.547 17.815 30.6378 17.9793 31.7724C18.1436 32.907 18.0813 34.0629 17.796 35.1732C17.5107 36.2836 17.0081 37.3264 16.3172 38.2412C15.1865 39.7395 13.6073 40.8379 11.8093 41.3769C10.0113 41.9158 8.0883 41.8672 6.31987 41.238H6.31587C6.14188 41.1761 5.99964 41.0476 5.92042 40.8807C5.84121 40.7139 5.83151 40.5224 5.89347 40.3484C5.95542 40.1745 6.08395 40.0322 6.25078 39.953C6.41762 39.8738 6.60908 39.8641 6.78307 39.926L6.8012 39.9327C7.92225 40.3606 9.12905 40.5156 10.3219 40.3849C11.5147 40.2541 12.6592 39.8413 13.6609 39.1807C14.5071 38.6177 15.2333 37.8926 15.7975 37.0473C16.3617 36.2019 16.7527 35.2532 16.948 34.2558C17.1433 33.2584 17.1389 32.2322 16.9352 31.2365C16.7314 30.2408 16.3323 29.2954 15.7609 28.4548C14.8235 27.0753 13.4704 26.0308 11.8984 25.4734C10.3264 24.9159 8.61752 24.8746 7.0204 25.3554C5.39643 25.8462 3.97119 26.8419 2.95161 28.1979C1.93203 29.5538 1.37119 31.1995 1.35053 32.8959C1.3489 32.9347 1.33232 32.9714 1.30427 32.9983C1.27622 33.0252 1.23886 33.0402 1.2 33.0402C1.16114 33.0402 1.12378 33.0252 1.09573 32.9983C1.06768 32.9714 1.0511 32.9347 1.04947 32.8959H1.0484Z" fill="#0C68F4"/>
<path d="M12.2475 34.7803H8.62347C8.40554 34.7801 8.19659 34.6935 8.04246 34.5394C7.88834 34.3853 7.80162 34.1764 7.80134 33.9585V28.4937C7.80478 28.3237 7.87472 28.1619 7.99615 28.0429C8.11757 27.9239 8.2808 27.8572 8.45081 27.8572C8.62081 27.8572 8.78404 27.9239 8.90546 28.0429C9.02689 28.1619 9.09683 28.3237 9.10027 28.4937V33.4803H12.2469C12.4169 33.4838 12.5788 33.5537 12.6977 33.6751C12.8167 33.7966 12.8834 33.9598 12.8834 34.1298C12.8834 34.2998 12.8167 34.463 12.6977 34.5845C12.5788 34.7059 12.4169 34.7758 12.2469 34.7793L12.2475 34.7803Z" fill="#0C68F4"/>
<path d="M5.46408 42.1241L4.27928 39.9929C4.25567 39.9505 4.24234 39.9033 4.24035 39.8549C4.23836 39.8064 4.24778 39.7582 4.26783 39.7141C4.28789 39.67 4.31803 39.6312 4.35582 39.6009C4.39362 39.5706 4.438 39.5496 4.48541 39.5395L7.09661 38.9838C7.15424 38.9715 7.21418 38.976 7.26937 38.9966C7.32457 39.0172 7.37273 39.0532 7.40821 39.1002C7.44369 39.1472 7.46501 39.2034 7.46966 39.2622C7.47431 39.3209 7.46211 39.3798 7.43448 39.4318L6.00835 42.1187C5.98225 42.168 5.94334 42.2093 5.89572 42.2383C5.8481 42.2673 5.79354 42.2828 5.7378 42.2834C5.68206 42.2839 5.6272 42.2694 5.57903 42.2414C5.53085 42.2133 5.49113 42.1728 5.46408 42.1241Z" fill="#0C68F4"/>
<path d="M17.4546 12.5304H8.64904C8.54619 12.5304 8.44434 12.5102 8.34932 12.4708C8.2543 12.4314 8.16796 12.3738 8.09523 12.301C8.0225 12.2283 7.96481 12.142 7.92546 12.0469C7.8861 11.9519 7.86584 11.8501 7.86584 11.7472C7.86584 11.6444 7.8861 11.5425 7.92546 11.4475C7.96481 11.3525 8.0225 11.2661 8.09523 11.1934C8.16796 11.1207 8.2543 11.063 8.34932 11.0236C8.44434 10.9843 8.54619 10.964 8.64904 10.964H17.4546C17.6624 10.964 17.8616 11.0465 18.0084 11.1934C18.1553 11.3403 18.2378 11.5395 18.2378 11.7472C18.2378 11.9549 18.1553 12.1542 18.0084 12.301C17.8616 12.4479 17.6624 12.5304 17.4546 12.5304Z" fill="#0C68F4"/>
<path d="M33.2798 31.305H24.474C24.3699 31.3069 24.2665 31.2881 24.1699 31.2496C24.0732 31.2111 23.9851 31.1537 23.9109 31.0808C23.8366 31.0079 23.7776 30.9209 23.7373 30.825C23.6971 30.729 23.6763 30.626 23.6763 30.5219C23.6763 30.4178 23.6971 30.3148 23.7373 30.2188C23.7776 30.1229 23.8366 30.0359 23.9109 29.963C23.9851 29.8901 24.0732 29.8327 24.1699 29.7942C24.2665 29.7557 24.3699 29.7369 24.474 29.7388H33.2798C33.3839 29.7369 33.4873 29.7557 33.584 29.7942C33.6807 29.8327 33.7687 29.8901 33.843 29.963C33.9172 30.0359 33.9762 30.1229 34.0165 30.2188C34.0568 30.3148 34.0775 30.4178 34.0775 30.5219C34.0775 30.626 34.0568 30.729 34.0165 30.825C33.9762 30.9209 33.9172 31.0079 33.843 31.0808C33.7687 31.1537 33.6807 31.2111 33.584 31.2496C33.4873 31.2881 33.3839 31.3069 33.2798 31.305Z" fill="#0C68F4"/>
<path d="M43.1974 36.1627C43.0084 36.1625 42.8258 36.0938 42.6833 35.9695C42.5409 35.8452 42.4482 35.6735 42.4224 35.4862C42.3967 35.2989 42.4395 35.1086 42.5431 34.9504C42.6467 34.7922 42.804 34.6769 42.986 34.6256L56.6702 30.7821C56.7692 30.7543 56.8727 30.7463 56.9749 30.7585C57.077 30.7707 57.1757 30.8029 57.2653 30.8532C57.355 30.9036 57.4339 30.9711 57.4974 31.0519C57.561 31.1327 57.608 31.2253 57.6358 31.3243C57.6636 31.4233 57.6717 31.5268 57.6595 31.6289C57.6473 31.731 57.6151 31.8297 57.5648 31.9193C57.5144 32.009 57.4469 32.0879 57.3661 32.1515C57.2853 32.215 57.1927 32.2621 57.0937 32.2899L43.4097 36.1333C43.3406 36.1527 43.2692 36.1625 43.1974 36.1627Z" fill="#0C68F4"/>
<path d="M42.1049 16.3758C41.9159 16.3755 41.7334 16.3069 41.591 16.1826C41.4486 16.0582 41.3559 15.8866 41.3301 15.6994C41.3043 15.5121 41.347 15.3219 41.4505 15.1637C41.5539 15.0054 41.711 14.89 41.8929 14.8385L47.2956 13.3174C47.395 13.2882 47.4992 13.2789 47.6023 13.2903C47.7053 13.3016 47.805 13.3332 47.8957 13.3834C47.9864 13.4336 48.0662 13.5012 48.1306 13.5824C48.1949 13.6637 48.2425 13.7569 48.2706 13.8566C48.2987 13.9564 48.3067 14.0607 48.2941 14.1636C48.2816 14.2665 48.2487 14.3658 48.1975 14.4559C48.1463 14.546 48.0777 14.625 47.9957 14.6884C47.9137 14.7518 47.8199 14.7983 47.7199 14.8252L42.3183 16.3452C42.2489 16.3652 42.1771 16.3755 42.1049 16.3758Z" fill="#0C68F4"/>
<path d="M33.2804 35.4776H24.4745C24.2668 35.4776 24.0676 35.3951 23.9207 35.2482C23.7738 35.1013 23.6913 34.9021 23.6913 34.6944C23.6913 34.4867 23.7738 34.2874 23.9207 34.1406C24.0676 33.9937 24.2668 33.9112 24.4745 33.9112H33.2804C33.4881 33.9112 33.6873 33.9937 33.8342 34.1406C33.981 34.2874 34.0636 34.4867 34.0636 34.6944C34.0636 34.9021 33.981 35.1013 33.8342 35.2482C33.6873 35.3951 33.4881 35.4776 33.2804 35.4776Z" fill="#0C68F4"/>
<path d="M58.8771 34.7843L51.3304 8.52034C51.189 8.02092 50.8553 7.59795 50.4025 7.34416C49.9497 7.09037 49.4147 7.02647 48.9149 7.16647L36.9504 10.5361V7.68274C36.9498 7.16365 36.7434 6.66599 36.3763 6.29894C36.0093 5.93189 35.5116 5.72544 34.9925 5.72487H22.5237C22.0725 5.73235 21.6383 5.8983 21.2971 6.19367C20.9316 5.89411 20.4761 5.72608 20.0037 5.7166H6.32905C5.75805 5.71731 5.21065 5.94447 4.80691 6.34825C4.40318 6.75204 4.17609 7.29947 4.17545 7.87047V20.2873C4.17545 20.495 4.25797 20.6942 4.40485 20.8411C4.55173 20.988 4.75094 21.0705 4.95865 21.0705C5.16637 21.0705 5.36558 20.988 5.51246 20.8411C5.65934 20.6942 5.74185 20.495 5.74185 20.2873V7.8694C5.74228 7.71394 5.80422 7.56496 5.91415 7.45503C6.02408 7.3451 6.17306 7.28316 6.32852 7.28274H20.0035C20.1463 7.28551 20.2831 7.34126 20.3872 7.43916C20.4913 7.53707 20.5554 7.67015 20.5669 7.8126V38.7379C20.5676 39.257 20.774 39.7546 21.1411 40.1217C21.5081 40.4887 22.0057 40.6952 22.5248 40.6958H34.9917C35.5108 40.6952 36.0084 40.4887 36.3754 40.1217C36.7425 39.7546 36.949 39.257 36.9496 38.7379V17.7921L43.1096 39.2294C43.1788 39.4772 43.2963 39.7088 43.4553 39.911C43.6143 40.1132 43.8116 40.2821 44.036 40.4079C44.2604 40.5337 44.5075 40.6139 44.7629 40.644C45.0184 40.6741 45.2773 40.6535 45.5248 40.5833L57.5248 37.2041C57.7726 37.1343 58.0043 37.0164 58.2065 36.857C58.4087 36.6976 58.5774 36.4999 58.7031 36.2751C58.8288 36.0504 58.9089 35.8031 58.9389 35.5474C58.9689 35.2917 58.9482 35.0326 58.8779 34.7849L58.8771 34.7843ZM35.3837 38.7371C35.3836 38.8409 35.3423 38.9404 35.2689 39.0138C35.1955 39.0872 35.096 39.1285 34.9923 39.1286H22.5237C22.4199 39.1285 22.3204 39.0872 22.2471 39.0138C22.1737 38.9404 22.1324 38.8409 22.1323 38.7371V37.4545C22.1341 37.4323 22.1563 37.419 22.1563 37.3966V7.8694C22.1563 7.82727 22.1347 7.79207 22.1323 7.75047V7.68167C22.1323 7.57784 22.1736 7.47829 22.247 7.40485C22.3204 7.3314 22.4199 7.29008 22.5237 7.28994H34.9907C35.0945 7.29008 35.194 7.3314 35.2674 7.40485C35.3408 7.47829 35.3821 7.57784 35.3821 7.68167L35.3837 38.7371ZM57.3355 35.5105C57.3106 35.5557 57.2769 35.5955 57.2365 35.6275C57.1961 35.6596 57.1497 35.6832 57.1 35.6971L45.1 39.0761C45.0506 39.0902 44.9989 39.0944 44.9478 39.0884C44.8968 39.0824 44.8474 39.0663 44.8027 39.0411C44.7572 39.0155 44.7173 38.9811 44.6852 38.9399C44.6532 38.8987 44.6296 38.8515 44.616 38.8011L37.0693 12.5374C37.0553 12.4879 37.0513 12.4362 37.0573 12.3851C37.0634 12.334 37.0794 12.2847 37.1045 12.2398C37.1297 12.195 37.1634 12.1555 37.2038 12.1237C37.2442 12.0919 37.2905 12.0684 37.34 12.0545L49.34 8.67527C49.3899 8.66124 49.442 8.65724 49.4934 8.66349C49.5449 8.66974 49.5945 8.68612 49.6396 8.71169C49.6846 8.73725 49.7242 8.77149 49.7559 8.81243C49.7877 8.85337 49.811 8.9002 49.8245 8.9502L57.3712 35.2142C57.385 35.2635 57.3889 35.315 57.3827 35.3658C57.3765 35.4167 57.3602 35.4657 57.3349 35.5102L57.3355 35.5105Z" fill="#52565C"/>
</svg>
