<svg width="60" height="48" viewBox="0 0 60 48" fill="none" xmlns="http://www.w3.org/2000/svg">
<path d="M48.2847 13.3067L40.498 6C40.2047 5.73333 39.858 5.6 39.458 5.6H19.4046C18.5779 5.6 17.8846 6.29334 17.8846 7.12V21.2534C17.8846 21.68 18.2313 22 18.6313 22C19.0313 22 19.378 21.6534 19.378 21.2534V7.12H38.8713V13.8667C38.8713 14.5067 39.378 15.0134 40.018 15.0134H47.2447V40.4001H26.1246C25.698 40.4001 25.378 40.7467 25.378 41.1467C25.378 41.5467 25.7246 41.8934 26.1246 41.8934H47.2447C48.0714 41.8934 48.7647 41.2267 48.7647 40.3734V14.4267C48.7647 14 48.6047 13.6 48.2847 13.3067ZM40.418 8.00001L46.2314 13.4667H40.418V8.00001Z" fill="#52565C"/>
<path d="M30.7882 15.7865H25.8815C25.4549 15.7865 25.1349 15.4399 25.1349 15.0399C25.1349 14.6399 25.4549 14.2665 25.8815 14.2665H30.7882C31.2149 14.2665 31.5349 14.6132 31.5349 15.0132C31.5349 15.4132 31.2149 15.7865 30.7882 15.7865Z" fill="#0C68F4"/>
<path d="M39.1349 21.6532H25.8815C25.4549 21.6532 25.1349 21.3065 25.1349 20.9065C25.1349 20.5065 25.4815 20.1599 25.8815 20.1599H39.1349C39.5616 20.1599 39.8816 20.5065 39.8816 20.9065C39.8816 21.3065 39.5616 21.6532 39.1349 21.6532Z" fill="#0C68F4"/>
<path d="M39.1349 26.7998H25.8815C25.4549 26.7998 25.1349 26.4532 25.1349 26.0532C25.1349 25.6532 25.4815 25.3065 25.8815 25.3065H39.1349C39.5616 25.3065 39.8816 25.6532 39.8816 26.0532C39.8816 26.4532 39.5616 26.7998 39.1349 26.7998Z" fill="#0C68F4"/>
<path d="M17.986 36.2931C17.7993 36.2931 17.6126 36.2398 17.4526 36.1331L16.0126 35.2531C15.6659 35.0398 15.5593 34.6131 15.7726 34.2665C15.9859 33.9198 16.4126 33.8131 16.7593 34.0265L17.906 34.7198L20.066 32.1331C20.3326 31.8398 20.786 31.8131 21.0793 32.0531C21.3726 32.2931 21.3993 32.7465 21.1593 33.0398L18.7593 35.9198C18.546 36.1598 18.2793 36.2931 17.986 36.2931Z" fill="#0C68F4"/>
<path d="M25.2415 29.0133C25.2415 29.0133 23.9082 28.5333 23.5082 28.4C20.3082 27.2 20.0682 26 19.1082 25.68C18.8948 25.6 18.4948 25.52 18.1215 25.68C17.1882 26.0533 16.9215 27.2 13.7215 28.4C13.3215 28.5333 11.9881 29.0133 11.9881 29.0133C11.2415 29.3067 11.2148 29.6267 11.2415 30.4C11.3215 31.4133 11.4548 32.4267 11.6948 33.4133C12.1215 35.3067 12.9481 37.0667 14.1215 38.6134C14.6815 39.3867 15.3481 40.0534 16.0682 40.6667C16.7615 41.28 18.2815 42.24 18.6015 42.4C18.9215 42.24 20.3348 41.36 21.1348 40.6667C21.8282 40.0267 22.5215 39.3867 23.0815 38.6134C24.2548 37.0667 25.0815 35.3067 25.5082 33.4133C25.7482 32.4267 25.8815 31.4133 25.9615 30.4C26.0148 29.6267 25.9882 29.3067 25.2415 29.0133ZM24.2282 33.1467C23.9882 34.9333 23.4015 36.64 22.4682 38.16C21.9882 38.9334 21.4282 39.6267 20.7615 40.24C20.1215 40.88 19.4015 41.44 18.6282 41.8934C17.8282 41.44 17.1348 40.88 16.4948 40.24C15.8282 39.6267 15.2681 38.9334 14.7881 38.16C13.8548 36.64 13.2681 34.9333 13.0281 33.1467C12.8681 32.2667 12.8148 30.4533 12.8148 30.4533C14.8948 29.92 16.8415 29.04 18.6015 27.7867C20.3615 29.04 22.3348 29.92 24.3882 30.4533C24.4148 30.4533 24.3615 32.2667 24.2282 33.1467Z" fill="#0C68F4"/>
</svg>
